<?xml version="1.0" encoding="utf-8"?>
<!-- Generator: Adobe Illustrator 18.1.1, SVG Export Plug-In . SVG Version: 6.00 Build 0)  -->
<svg version="1.1" id="Layer_1" xmlns="http://www.w3.org/2000/svg" xmlns:xlink="http://www.w3.org/1999/xlink" x="0px" y="0px"
	 viewBox="0 0 124.6 108.5" enable-background="new 0 0 124.6 108.5" xml:space="preserve">
<g id="Logo_1_">
	<path fill="#FFFFFF" stroke="#FFFFFF" stroke-width="7.4565" stroke-linecap="round" stroke-linejoin="round" d="M58.9,51.7
		c0.4-3,1.6-5.2,1.7-8.5c-4.5-0.5-7.3,1.5-9.1,3.1c-0.2-0.9,0.4-2.7-0.3-3.1c-3.3,0.3-7.3,0.6-10.5,1.2c0.6,2.5,1.1,4.9,1.6,7.3
		c0.4,2.2,1,5,1.3,6.5c0.4,1.5,0.6,2.6,0.9,3.8c0.5,2.3,0.9,4.5,1.6,6.7c1.8,0,2.3-0.2,4.1-0.2C51.9,61.9,49.7,50.3,58.9,51.7z
		 M36.8,46.1c-0.3-0.4-0.8-0.8-1.1-1c-0.9-0.9-1.8-1.4-2.9-2.1c1.5-7.1-3.8-13.5-11-12.4c-1.3,0.2-2.7,0.6-3.8,1.2
		c-0.1-0.8,0-1.9-0.3-2.4c-0.2,0-0.4,0.1-0.7,0.1c-1.6,0.4-2.9,0.4-5,0.6c-2.1,0.2-6.6,1.3-8.1,2.1c-0.2,0.1-0.1,0.3,0,0.5
		c0.5,1,0.7,2.2,0.9,3.5c0.1,1.1,0.6,2.3,0.9,3.5c0.6,2.6,1,5,1.4,7.4c0.4,2.3,0.8,4.2,1.2,5.9c0.2,0.8,0.4,1.8,0.5,2.6
		c0.8,4.5,2.2,8.9,2.9,13.3h7.8c0.5-0.4-0.1-1.7,0.3-2.1c2.5,1.2,5.1,2.4,8.5,2.2c9.1-0.3,14.6-11.2,11-19.2
		C38.5,48.2,37.6,47.1,36.8,46.1z M28.9,57c-0.3,2.4-3.6,5-7.6,4.7c-2.4-0.2-4.6-2.1-5-4.5c-0.2-1-0.1-4,0.7-5.2
		c0.5-0.8,1.9-1.8,3.8-2.2c3.4-0.7,5.9,0.2,7.1,2.2C28.5,53.1,29.1,55.3,28.9,57z M29.5,42.2c-4.9-0.8-8.5,1.3-11.2,3.2
		c-0.1-1-0.1-1.7-0.2-2.6c-0.2-2.1-0.4-4.4-0.2-6.6c0.9-0.9,2.2-1.7,3.3-2.1C25.9,32.8,31.1,37.1,29.5,42.2z M64.2,32.5
		c-4.7,1-3.9,7.6-0.5,8.8c3.2,1.1,6-1.2,6.2-4C70.1,34.3,67.6,31.7,64.2,32.5z M65.2,35.9c-1.9,0.3-2-1.8-0.9-2.1
		C65.4,33.6,66.3,35,65.2,35.9z M112.9,56.5c1.3-2.1,2.6-4.3,4-6.2c1.4-2,2.9-3.7,4-6.2c-1.5-0.8-3.4-1.2-5.5-1.4
		c-1.9,2.6-3.2,5.8-4.8,8.6c-1.1-3-2.4-5.9-3.5-9c-3.5-0.5-7.8-0.3-10.5,0.9c0.4,1.8,1.5,3.2,2.4,4.7c1.6,2.7,3,5.5,4.1,8.5
		c-2.9,3.9-6,7.6-8.5,11.9c1.9,0.1,3.5-0.1,5.4-0.2c1.8-2.6,3.4-5.2,5.4-7.6c1.6,2.5,2.5,5.7,3.8,8.5c3.5,0,9.6,0.2,9.6,0.2
		s-1-2-1.4-3C115.6,62.9,114.3,59.6,112.9,56.5z M93.6,42.8c-1.3-1-3.5-1-5.8-1c-1.1,3-2.4,5.8-4,8.3c-1.4-2.5-2.4-5.4-3.6-8.1
		c-4.3,0.2-8.4,0.6-10.9,2.6c2.5,3.9,5.5,7.1,7.6,11.4c-2.4,4.4-5,7.8-7,12.6c2,0,3.8,0,5.6-0.3c1.7-2.4,2.6-5.1,4.4-7.6
		c1,2.9,3,4.8,4.1,7.6c3.4,0,6.3-0.1,9.1-0.2c-1.8-4.6-4.4-8.4-6.4-12.8c1.3-2,2.3-3.6,3.4-5.9c0,0,0.4-0.7,0.6-1.1
		c0.2-0.4,1.9-3.6,2.2-4.1c0.2-0.3,0.3-0.5,0.5-0.9C93.5,43.2,93.6,43,93.6,42.8C93.7,42.9,93.6,42.8,93.6,42.8z M63.5,43.7
		c-1.7,8-3.9,16.6-5.9,24.9c3.5-0.1,7.4,0.2,10.5,0c-0.4-7.9-1-15.4-1.7-24.2C65.3,44.1,64.7,43.8,63.5,43.7z"/>
	<g>
		<path fill="#DB9440" d="M50.9,106.4c-3.5,0-7.1-1.5-10.2-2.7c-0.7-0.3-1.3-0.5-2-0.8c-2.7-1.2-4.9-2.9-7-4.6c-1.3-1-2.5-2-3.8-2.8
			c-4.9-2.8-6.4-6.2-8.2-10.5l-0.3-0.7c-2.4-5.5-5-11.6-6.9-19.1l0-0.1l-0.7-4.1c-1.1-3.4-1.4-5.4-1.4-8.9c0-4,0.2-8,0.5-13
			c0.3-4.9,1.6-9,4-13c2.7-4.4,5.1-6.6,8.7-9.8c1.3-1.1,2.9-2,4.6-2.9c1-0.5,2.1-1.1,3.2-1.7c1.5-0.9,3-1.5,4.5-2.1
			c0.7-0.3,1.4-0.6,2-0.9c0.6-0.3,1.2-0.6,1.8-1c1.3-0.8,2.7-1.5,4.6-2C45,5.4,46,5,47.1,4.6c1.5-0.6,3.1-1.2,4.4-1.4
			c4-0.7,7.6-1.1,10.9-1.1C68.5,2.1,74.3,3.3,81,6c1.2,0.5,2.4,1.2,3.5,1.8c1.1,0.6,2.1,1.2,3.1,1.6c0.9,0.3,1.8,0.6,2.7,0.9
			c2.4,0.7,4.8,1.5,6.9,3.3c2.6,2.2,5,4.3,6.7,7c0.4,0.7,0.9,1.3,1.3,1.9c1.2,1.9,2.3,3.5,3.2,5.4c1.8,3.8,2.6,6.4,3.8,10.3l0.1,0.2
			c0.6,1.7,1.1,4.2,1.5,6.5c0.1,0.6,0.2,1.2,0.3,1.7c0.3,1.4,0.2,2.6,0.1,3.7c-0.1,0.9-0.2,1.7,0,2.4c0.9,3.4,0.2,7.1-0.5,10.7
			c-0.3,1.4-0.5,2.7-0.6,3.9c-0.5,4.9-1.5,11.2-5,15.6c-0.7,0.9-1.5,1.7-2.3,2.5c-0.9,0.9-1.8,1.8-2.5,2.8c-1.5,2.2-3.1,4.8-5.9,6.4
			c-3.8,2.1-8.2,3.9-12.5,5c-2.4,0.5-4.6,1.4-7,2.3c-1.5,0.6-3.1,1.2-4.7,1.7c-2.8,0.8-5.6,1.1-8.4,1.3c-1.2,0.1-2.3,0.2-3.4,0.3
			c-1.2,0.1-2.4,0.3-3.7,0.5C55.4,106.1,53.2,106.4,50.9,106.4z"/>
		<path fill="#FFFFFF" d="M62.3,4.2c5.9,0,11.4,1.2,17.9,3.7c2.2,0.8,4.3,2.6,6.6,3.5c3.2,1.2,6.5,1.7,8.9,3.8
			c2.2,1.9,4.7,4,6.3,6.5c1.7,2.7,3.2,4.8,4.3,7.1c1.7,3.7,2.5,6.2,3.8,10.2c0.8,2.2,1.3,5.6,1.8,8c0.5,2.3-0.5,4.1,0.1,6.3
			c1.1,4.2-0.7,9.5-1.2,13.8c-0.5,4.6-1.4,10.5-4.6,14.5c-1.4,1.9-3.5,3.3-4.9,5.4c-1.4,2.2-2.8,4.3-5.2,5.7
			c-3.6,2-7.9,3.7-11.9,4.8c-4.1,0.9-7.9,2.8-11.8,4c-3.6,1.1-7.7,1.1-11.5,1.5c-3.3,0.3-6.8,1.1-10.1,1.1c-3.8,0-7.9-2-11.5-3.4
			c-3.9-1.7-6.8-4.9-10.4-7.3c-4.6-2.6-5.7-5.6-7.7-10.2c-2.8-6.3-5-12-6.8-18.8l-0.7-4.2c-1.1-3.4-1.4-5.2-1.4-8.4
			c0-4.5,0.2-8.7,0.5-12.9c0.3-4.5,1.5-8.3,3.7-12c2.5-4,4.6-6.1,8.3-9.3c1.7-1.5,4.5-2.6,7.5-4.4c2-1.2,4.3-1.9,6.3-2.9
			c2.2-1.1,3.6-2.2,6-2.9c1.9-0.5,5.1-2.1,7.1-2.4C55.6,4.6,59,4.2,62.3,4.2 M62.3,0c-3.4,0-7.1,0.4-11.2,1.1
			c-1.5,0.3-3.2,0.9-4.8,1.5c-0.9,0.4-2,0.8-2.6,0.9l0,0l0,0C41.6,4.1,40,5,38.6,5.8c-0.6,0.3-1.1,0.6-1.7,0.9
			c-0.6,0.3-1.2,0.5-1.9,0.8c-1.5,0.6-3.2,1.3-4.8,2.3c-1,0.6-2.1,1.2-3.1,1.7c-1.9,0.9-3.6,1.8-5.1,3.2c-3.7,3.4-6.2,5.7-9,10.2
			l0,0l0,0c-2.5,4.3-3.9,8.7-4.2,13.9C8.4,43.9,8.3,47.9,8.3,52c0,3.7,0.3,5.9,1.5,9.4l0.7,3.9l0,0.2l0,0.1c1.9,7.7,4.5,13.9,7,19.5
			l0.3,0.7c1.9,4.4,3.6,8.2,9.1,11.4c1.2,0.8,2.3,1.7,3.5,2.7c2.2,1.8,4.4,3.6,7.4,4.9l0.1,0l0.1,0c0.6,0.2,1.3,0.5,2,0.8
			c3.3,1.4,7.1,2.9,11,2.9c2.4,0,4.7-0.3,6.9-0.7c1.2-0.2,2.4-0.3,3.5-0.4l0.1,0l0.1,0c1.1-0.1,2.2-0.2,3.3-0.3
			c2.9-0.2,5.9-0.5,8.8-1.4l0,0l0,0c1.7-0.5,3.3-1.1,4.8-1.7c2.3-0.9,4.4-1.7,6.6-2.2l0.1,0l0.1,0c4.4-1.2,9-3,12.9-5.2l0,0l0,0
			c3.2-1.9,5-4.6,6.6-7.1c0.5-0.8,1.3-1.6,2.2-2.4c0.8-0.8,1.7-1.7,2.5-2.7c3.8-4.9,4.9-11.5,5.4-16.7c0.1-1.1,0.4-2.4,0.6-3.7
			c0.7-3.6,1.5-7.7,0.4-11.6l0,0l0,0c-0.1-0.3-0.1-0.8,0-1.6c0.1-1.1,0.3-2.6-0.1-4.3c-0.1-0.5-0.2-1.1-0.3-1.7
			c-0.4-2.3-0.9-4.8-1.6-6.8l0-0.1c-1.3-4-2.1-6.6-3.9-10.6c-1-2-2.1-3.8-3.3-5.6c-0.4-0.6-0.8-1.2-1.2-1.9
			c-1.8-2.9-4.4-5.2-7.1-7.5c-2.4-2-5.1-2.9-7.6-3.7c-0.9-0.3-1.8-0.6-2.6-0.9c-0.8-0.3-1.8-0.9-2.8-1.5c-1.2-0.7-2.4-1.4-3.8-2
			C74.8,1.2,68.8,0,62.3,0L62.3,0z"/>
	</g>
	<g>
		<g>
			<path fill="#9F2D32" d="M120.8,44.1c-1.1,2.5-2.6,4.3-4,6.2c-1.4,2-2.7,4.1-4,6.2c1.4,3.1,2.7,6.5,4.3,9.7c0.5,0.9,1.4,3,1.4,3
				s-6-0.2-9.6-0.2c-1.3-2.8-2.2-5.9-3.8-8.5c-1.9,2.4-3.6,5-5.4,7.6c-1.8,0-3.4,0.3-5.4,0.2c2.5-4.3,5.6-8,8.5-11.9
				c-1.1-3-2.5-5.8-4.1-8.5c-0.9-1.5-2.1-2.9-2.4-4.7c2.7-1.2,7-1.4,10.5-0.9c1.1,3.1,2.3,5.9,3.5,9c1.6-2.8,2.9-6,4.8-8.6
				C117.4,42.9,119.4,43.3,120.8,44.1"/>
			<path fill="#9F2D32" d="M90.7,48.3c0.2-0.4,1.9-3.6,2.2-4.1c0.2-0.3,0.3-0.5,0.5-0.9c0.1-0.2,0.2-0.4,0.3-0.4c0,0,0,0,0-0.1
				c-1.3-1-3.5-1-5.8-1c-1.1,3-2.4,5.8-4,8.3c-1.4-2.5-2.4-5.4-3.6-8.1c-4.3,0.2-8.4,0.6-10.9,2.6c2.5,3.9,5.5,7.1,7.6,11.4
				c-2.4,4.4-5,7.8-7,12.6c2,0,3.8,0,5.6-0.3c1.7-2.4,2.6-5.1,4.4-7.6c1,2.9,3,4.8,4.1,7.6c3.4,0,6.3-0.1,9.1-0.2
				c-1.8-4.6-4.4-8.4-6.4-12.8c1.3-2,2.3-3.6,3.4-5.9C90.2,49.4,90.5,48.7,90.7,48.3z"/>
			<path fill="#9F2D32" d="M64.2,32.5c3.4-0.8,6,1.8,5.7,4.8c-0.2,2.8-3.1,5.1-6.2,4C60.3,40.1,59.5,33.5,64.2,32.5 M65.2,35.9
				c1.1-0.9,0.2-2.4-0.9-2.1C63.2,34.2,63.3,36.3,65.2,35.9"/>
			<path fill="#9F2D32" d="M66.4,44.4c0.8,8.8,1.3,16.3,1.7,24.2c-3.1,0.2-7-0.1-10.5,0c2-8.3,4.1-16.9,5.9-24.9
				C64.7,43.8,65.3,44.1,66.4,44.4"/>
			<path fill="#9F2D32" d="M60.7,43.2c-0.1,3.3-1.3,5.5-1.7,8.5c-9.2-1.3-7.1,10.2-8.8,16.9c-1.8-0.1-2.3,0.2-4.1,0.2
				c-0.6-2.3-1.1-4.4-1.6-6.7c-0.3-1.2-0.5-2.3-0.9-3.8c-0.4-1.5-0.9-4.3-1.3-6.5c-0.5-2.4-1-4.8-1.6-7.3c3.3-0.6,7.3-0.9,10.5-1.2
				c0.8,0.4,0.1,2.2,0.3,3.1C53.3,44.7,56.2,42.7,60.7,43.2"/>
			<path fill="#9F2D32" d="M39.2,49.8c3.6,8-2,18.8-11,19.2c-3.4,0.1-6-1.1-8.5-2.2c-0.5,0.3,0.1,1.7-0.3,2.1h-7.8
				c-0.8-4.4-2.1-8.8-2.9-13.3c-0.1-0.8-0.4-1.8-0.5-2.6c-0.3-1.7-0.8-3.6-1.2-5.9c-0.4-2.4-0.8-4.8-1.4-7.4
				c-0.2-1.1-0.7-2.4-0.9-3.5c-0.1-1.3-0.4-2.4-0.9-3.5c-0.1-0.2-0.2-0.4,0-0.5c1.5-0.8,6-1.9,8.1-2.1c2.1-0.2,3.4-0.2,5-0.6
				c0.3-0.1,0.5-0.1,0.7-0.1c0.3,0.5,0.2,1.6,0.3,2.4c1.1-0.6,2.5-1,3.8-1.2c7.2-1.1,12.6,5.3,11,12.4c1.1,0.7,2,1.2,2.9,2.1
				c0.3,0.3,0.7,0.6,1.1,1C37.6,47.1,38.5,48.2,39.2,49.8 M29.5,42.2c1.5-5-3.6-9.4-8.3-7.9c-1.1,0.3-2.4,1.1-3.3,2.1
				c-0.2,2.1,0,4.4,0.2,6.6c0.1,0.8,0.1,1.6,0.2,2.6C21,43.5,24.7,41.3,29.5,42.2 M28.9,57c0.2-1.7-0.4-3.9-1-5
				c-1.2-2-3.7-3-7.1-2.2c-1.9,0.4-3.3,1.5-3.8,2.2c-0.8,1.2-0.9,4.2-0.7,5.2c0.4,2.4,2.6,4.3,5,4.5C25.3,62,28.5,59.4,28.9,57"/>
		</g>
	</g>
	<g>
		<path fill="#231F20" d="M25.2,80.7l-1.6-7.6h2l0.5,3.8l0.7-3.8h1.6l0.7,3.8l0.5-3.8h2l-1.8,7.6h-1.6l-0.7-3.6l-0.7,3.6H25.2z"/>
		<path fill="#231F20" d="M34.5,72.9c1.4,0,2.5,0.8,2.5,1.8V79c0,1-1.1,1.8-2.5,1.8C33.1,80.8,32,80,32,79v-4.3
			C32,73.7,33.1,72.9,34.5,72.9z M34.5,79.5c0.3,0,0.4-0.1,0.4-0.3v-4.7c0-0.2-0.2-0.3-0.4-0.3c-0.2,0-0.4,0.1-0.4,0.3v4.7
			C34.1,79.4,34.3,79.5,34.5,79.5z"/>
		<path fill="#231F20" d="M40.4,72.9c1.4,0,2.5,0.8,2.5,1.8V79c0,1-1.1,1.8-2.5,1.8c-1.4,0-2.5-0.8-2.5-1.8v-4.3
			C37.9,73.7,39,72.9,40.4,72.9z M40.4,79.5c0.3,0,0.4-0.1,0.4-0.3v-4.7c0-0.2-0.2-0.3-0.4-0.3c-0.2,0-0.4,0.1-0.4,0.3v4.7
			C40,79.4,40.2,79.5,40.4,79.5z"/>
		<path fill="#231F20" d="M46.9,80.7l-0.1-0.3c-0.3,0.3-0.8,0.5-1.3,0.5c-0.9,0-1.6-0.5-1.6-1.1v-5.6c0-0.6,0.7-1.2,1.6-1.2
			c0.5,0,1,0.2,1.3,0.5v-3h2.1v10.3H46.9z M46.4,74.2c-0.2,0-0.4,0.1-0.4,0.3v4.7c0,0.2,0.2,0.3,0.4,0.3c0.2,0,0.4-0.1,0.4-0.3v-4.7
			C46.8,74.4,46.6,74.2,46.4,74.2z"/>
		<path fill="#231F20" d="M55.6,71.9h-0.4c-0.2,0-0.4,0.1-0.4,0.3v0.9h0.9v1.3h-0.9v6.3h-2.1v-6.3h-0.7v-1.3h0.7v-1.3
			c0-0.8,0.9-1.4,2-1.4h1V71.9z"/>
		<path fill="#231F20" d="M56.4,72.1v-1.7h2.1v1.7H56.4z M56.4,80.7v-7.6h2.1v7.6H56.4z"/>
		<path fill="#231F20" d="M61.6,80.7h-2.1v-7.6h2l0.1,0.4c0.3-0.3,0.9-0.6,1.7-0.6v1.6c-1.1,0-1.7,0.1-1.7,0.7V80.7z"/>
		<path fill="#231F20" d="M66.4,72.9c1.4,0,2.5,0.8,2.5,1.8v2.4h-3v2c0,0.2,0.2,0.3,0.4,0.3c0.2,0,0.4-0.1,0.4-0.3v-1.3H69V79
			c0,1-1.1,1.8-2.5,1.8c-1.4,0-2.5-0.8-2.5-1.8v-4.3C63.9,73.7,65,72.9,66.4,72.9z M66.9,76.2v-1.7c0-0.2-0.2-0.3-0.4-0.3
			c-0.2,0-0.4,0.1-0.4,0.3v1.7H66.9z"/>
		<path fill="#231F20" d="M73,80.7l-0.1-0.3c-0.3,0.3-0.8,0.5-1.3,0.5c-0.9,0-1.6-0.5-1.6-1.1v-5.6c0-0.6,0.7-1.2,1.6-1.2
			c0.5,0,1,0.2,1.3,0.5v-3H75v10.3H73z M72.4,74.2c-0.2,0-0.4,0.1-0.4,0.3v4.7c0,0.2,0.2,0.3,0.4,0.3c0.2,0,0.4-0.1,0.4-0.3v-4.7
			C72.9,74.4,72.7,74.2,72.4,74.2z"/>
		<path fill="#231F20" d="M80.4,73.1l0.1,0.3c0.3-0.3,0.8-0.5,1.3-0.5c0.9,0,1.6,0.5,1.6,1.1v5.6c0,0.6-0.7,1.2-1.6,1.2
			c-0.5,0-1-0.2-1.3-0.5v3h-2.1V73.1H80.4z M80.9,79.5c0.3,0,0.4-0.1,0.4-0.3v-4.7c0-0.2-0.2-0.3-0.4-0.3c-0.2,0-0.4,0.1-0.4,0.3
			v4.7C80.5,79.4,80.7,79.5,80.9,79.5z"/>
		<path fill="#231F20" d="M84.4,72.1v-1.7h2.1v1.7H84.4z M84.4,80.7v-7.6h2.1v7.6H84.4z"/>
		<path fill="#231F20" d="M87.2,74.4v-1.3h4.2l-1.9,6.2h1.9v1.4H87l1.9-6.3H87.2z"/>
		<path fill="#231F20" d="M91.9,74.4v-1.3h4.2l-1.9,6.2h1.9v1.4h-4.4l1.9-6.3H91.9z"/>
		<path fill="#231F20" d="M102,80.7h-1.7l-0.1-0.4c-0.2,0.3-0.8,0.6-1.4,0.6c-1.3,0-2.2-0.7-2.2-1.8v-0.6c0-1.1,1.3-1.7,3-2.5v-1.4
			c0-0.2-0.1-0.3-0.4-0.3c-0.3,0-0.3,0.1-0.3,0.3v0.9h-2.1v-0.7c0-1,1.1-1.8,2.5-1.8c1.4,0,2.3,0.8,2.3,1.8v4.4
			C101.7,79.4,101.7,80.1,102,80.7z M98.7,78.2v1c0,0.2,0.1,0.4,0.4,0.4c0.3,0,0.4-0.2,0.4-0.4v-1.9C99,77.6,98.7,77.7,98.7,78.2z"
			/>
	</g>
</g>
<g>
</g>
<g>
</g>
<g>
</g>
<g>
</g>
<g>
</g>
<g>
</g>
</svg>
